<?xml version="1.0" encoding="UTF-8"?>
<svg width="86px" height="86px" viewBox="0 0 86 86" version="1.1" xmlns="http://www.w3.org/2000/svg" xmlns:xlink="http://www.w3.org/1999/xlink">
    <title>harbour-sfos-forum-viewer</title>
    <defs>
        <linearGradient x1="98.977099%" y1="1.02290103%" x2="0.488173302%" y2="99.5118267%" id="linearGradient-1">
            <stop stop-color="#24CCFF" offset="0%"></stop>
            <stop stop-color="#0088CC" offset="100%"></stop>
        </linearGradient>
        <filter id="filter-2">
            <feColorMatrix in="SourceGraphic" type="matrix" values="0 0 0 0 0.000000 0 0 0 0 0.000000 0 0 0 0 0.000000 0 0 0 1.000000 0"></feColorMatrix>
        </filter>
    </defs>
    <g id="harbour-sfos-forum-viewer" stroke="none" stroke-width="1" fill="none" fill-rule="evenodd">
        <path d="M43,0.3 C19.418,0.3 0.3,19.418 0.3,43 L0.3,84.277 C0.3,85.063 0.937,85.7 1.723,85.7 L43,85.7 C66.585,85.7 85.7,66.582 85.7,43 C85.7,19.418 66.585,0.3 43,0.3 Z" id="Path" fill="url(#linearGradient-1)" fill-rule="nonzero"></path>
        <path d="M45.6743597,19.9743597 C60.0337632,19.9743597 71.6743597,31.6149562 71.6743597,45.9743597 C71.6743597,60.3337632 60.0337632,71.9743597 45.6743597,71.9743597 C41.0410863,71.9743597 36.6908747,70.7624276 32.9234388,68.638277 L17.6743597,73.9743597 L23.6462621,59.7925063 C21.1298082,55.7893577 19.6743597,51.0518278 19.6743597,45.9743597 C19.6743597,31.6149562 31.3149562,19.9743597 45.6743597,19.9743597 Z" id="3" fill-opacity="0.5" fill="#40ECF6" transform="translate(44.674360, 46.974360) rotate(6.000000) translate(-44.674360, -46.974360) "></path>
        <path d="M40.0243597,14.3343597 C54.3837632,14.3343597 66.0243597,25.9749562 66.0243597,40.3343597 C66.0243597,54.6937632 54.3837632,66.3343597 40.0243597,66.3343597 C35.3910863,66.3343597 31.0408747,65.1224276 27.2734388,62.998277 L12.0243597,68.3343597 L17.9962621,54.1525063 C15.4798082,50.1493577 14.0243597,45.4118278 14.0243597,40.3343597 C14.0243597,25.9749562 25.6649562,14.3343597 40.0243597,14.3343597 Z" id="1" fill="#FF9ABF" transform="translate(39.024360, 41.334360) rotate(-6.000000) translate(-39.024360, -41.334360) "></path>
        <path d="M48.4911501,20.226797 C54.408516,20.8487372 59.6527232,23.4095562 63.6588713,27.2116603 C67.0096494,31.5895993 69,37.062364 69,43 C69,57.3594035 57.3594035,69 43,69 C38.3667266,69 34.0165151,67.7880679 30.2490791,65.6639173 L15.004,70.9982627 L22.4215951,57.5242524 C20.3373695,53.2799925 19.3851008,48.4162794 19.9158408,43.3666262 C21.4168071,29.085885 34.2104089,18.7258306 48.4911501,20.226797 Z" id="2x3" fill="#58EAC8"></path>
        <path d="M43,17 C48.9217818,17 54.3811715,18.9797358 58.7524204,22.3134586 C62.5735609,26.3240879 65.1480897,31.5821978 65.7719224,37.5175693 C67.2728888,51.7983105 56.9128343,64.5919122 42.6320932,66.0928786 C38.0242013,66.5771876 33.5711393,65.8266154 29.6023076,64.1079055 L15.046,70.984 L15,71 L20.9719024,56.8181466 C18.4554485,52.814998 17,48.0774681 17,43 C17,28.6405965 28.6405965,17 43,17 Z" id="1x2" fill="#FFDEB9"></path>
        <path d="M48.4911501,20.226797 C53.169188,20.7184786 57.4265107,22.4219332 60.9840069,24.9924868 C63.5665204,28.5565834 65.2787608,32.8254505 65.7719224,37.5175693 C67.2728888,51.7983105 56.9128343,64.5919122 42.6320932,66.0928786 C38.0242013,66.5771876 33.5711393,65.8266154 29.6023076,64.1079055 L15.011,71.0002627 L15,71.0041823 L22.4215951,57.5242524 C20.3373695,53.2799925 19.3851008,48.4162794 19.9158408,43.3666262 C21.4168071,29.085885 34.2104089,18.7258306 48.4911501,20.226797 Z" id="1x3" fill="#FFFFFF"></path>
        <g filter="url(#filter-2)" id="Group" opacity="0.7">
            <g transform="translate(30.000000, 29.000000)">
                <path d="M8.76478571,26.013 L8.099,24.7900714 C8.12964286,24.7724286 11.1818571,23.0722143 11.1818571,20.5344286 C11.1818571,19.0672857 10.179,17.8165 9.11857143,16.4914286 C7.9365,15.0168571 6.59657143,13.3445 6.59657143,11.1456429 C6.59657143,3.20542857 16.5945,0.8125 17.0207143,0.715 L18.7664286,0.312928571 L17.7496429,1.78842857 C17.7301429,1.81721429 15.7810714,4.68092857 15.7281429,7.52885714 L14.3352857,7.50378571 C14.3696429,5.63735714 15.0725714,3.8285 15.6863571,2.59164286 C13.0046429,3.58521429 7.9885,6.1165 7.9885,11.1447143 C7.9885,12.8542143 9.06471429,14.1978571 10.2040714,15.6204286 C11.3685,17.0736429 12.5737857,18.5779286 12.5737857,20.5335 C12.5747143,23.9042143 8.91985714,25.9285 8.76478571,26.013 Z" id="Path" fill="#FFFFFF" fill-rule="nonzero"></path>
                <path d="M13.8741577,14.3 L12.8421429,13.2553571 C13.8914286,11.4669286 16.5369286,10.0815 17.9687857,9.43242857 C16.9715,9.0415 16.2258571,8.36642857 15.8154286,7.92721429 C14.8051429,8.35992857 12.3295714,9.56521429 11.3387857,11.3629286 L10.1195714,10.6906429 C11.6285,7.95228571 15.6167143,6.49814286 15.7857143,6.43778571 L16.5824286,6.682 C16.5963571,6.70057143 18.096,8.69235714 20.1388571,8.29121429 C21.1751429,8.086 22.1928571,7.78792857 23.0183571,7.51492857 L24.921,6.812 L25.4354286,8.10642857 C25.3787857,8.13057143 24.5876429,8.46578571 23.4445714,8.84278571 L19.4071429,10.3368571 C18.2538571,10.7723571 14.8612292,12.6155714 13.8741577,14.3 Z" id="Path" fill="#FFFFFF" fill-rule="nonzero"></path>
                <path d="M1.04278571,28.0892857 L0.904428571,26.7066429 C1.79957143,26.5562143 2.64735714,26.39 3.44871429,26.2098571 C4.8165,25.6945 6.03292857,24.7845 6.99492857,23.5337143 C8.56978571,21.4862143 9.06744599,17.8997708 8.56787456,15.7157708 L10.1223571,16.2592857 C10.7203571,18.8713571 9.945,21.983 8.099,24.3824286 C7.93835714,24.5913571 7.77214286,24.791 7.59942857,24.9832143 C11.8792143,23.3303571 13.9777857,20.9420714 13.9777857,17.7635714 C13.9777857,16.172 13.0399286,15.1793571 11.9544286,14.0297857 C10.7537857,12.7576429 9.3925,11.3174286 9.3925,8.89385714 C9.3925,4.60107143 13.7168571,2.18585714 13.9007143,2.08464286 L14.4149629,3.1170469 C14.3768914,3.13747547 10.7853571,5.43307143 10.7853571,8.89292857 C10.7853571,10.7621429 11.8457857,11.8838571 12.9675,13.0715 C14.1486429,14.3222857 15.3715714,15.6167143 15.3715714,17.7617143 C15.3715714,24.2171429 8.26057143,26.6082143 3.72171429,27.5934286 C2.87021429,27.8896429 1.97228571,28.0577143 1.04278571,28.0892857 Z" id="Path" fill="#FFFFFF" fill-rule="nonzero"></path>
            </g>
        </g>
    </g>
</svg>